# xmcd
#
# Track frame offsets:
#	187
#	11327
#	21475
#	33475
#	46452
#	57475
#	70637
#	82065
#	91750
#	107525
#	117962
#	131740
#	142395
#	153025
#	164525
#	178350
#	189150
#	201800
#	214562
#	227650
#	239120
#	247675
#	261277
#	275432
#	288137
#	302752
#	316125
#
# Disc length: 4393 seconds
#
# Revision: 1
# Processed by: cddbd v1.4PL0 Copyright (c) Steve Scherf et al.
# Submitted via: audiograbber 1.81.03
#
DISCID=7f11271b
DTITLE=Statler Brothers - Their Greatest Hits And Finest Performances Disc 1
DYEAR=1900
DGENRE=
TTITLE0=Flowers On the Wall
TTITLE1=Do You Know You Are My Sunshine
TTITLE2=Class Of '57
TTITLE3=Do You Remember These
TTITLE4=Bed Of Roses
TTITLE5=Charlotte's Web
TTITLE6=(I'll Even Love You) Better Than I Did Then
TTITLE7=Who Am I To Say
TTITLE8=How To Be A Country Star
TTITLE9=The Official Historian On Shirley Jean Berrell
TTITLE10=The Movies
TTITLE11=Some I Wrote
TTITLE12=Thank God I've Got You
TTITLE13=Silver Medals And Sweet Memories
TTITLE14=Mr. Autry
TTITLE15=Nothing As Original As You
TTITLE16=Here We Are Again
TTITLE17=I Was There
TTITLE18=I'll Go To My Grave Loving You
TTITLE19=Your Picture In The Paper
TTITLE20=Whatever Happened To Randolph Scott
TTITLE21=Susan When She Tried
TTITLE22=Thank You World
TTITLE23=New York City
TTITLE24=Carry Me Back
TTITLE25=Pictures
TTITLE26=You Can't Go Home
EXTD=
EXTT0=
EXTT1=
EXTT2=
EXTT3=
EXTT4=
EXTT5=
EXTT6=
EXTT7=
EXTT8=
EXTT9=
EXTT10=
EXTT11=
EXTT12=
EXTT13=
EXTT14=
EXTT15=
EXTT16=
EXTT17=
EXTT18=
EXTT19=
EXTT20=
EXTT21=
EXTT22=
EXTT23=
EXTT24=
EXTT25=
EXTT26=
PLAYORDER=
